# xmcd CD database file
#
# Track frame offsets:
#	150
#	10795
#	20538
#	32330
#	48785
#	62708
#	87165
#	125470
#	146270
#	159798
#
# Disc length: 2240 seconds
#
# Revision: 0
# Processed by: cddbd v1.5.1PL2 Copyright (c) Steve Scherf et al.
# Submitted via: CDex 1.51
#
DISCID=6908be0a
DTITLE=The Shy Party - Cowbells for Cowboys
DYEAR=1990
DGENRE=Country
TTITLE0=Who says
TTITLE1=Angel
TTITLE2=In the morning
TTITLE3=Love letters
TTITLE4=My brother's dying
TTITLE5=Now
TTITLE6=Ouch
TTITLE7=Tea for one
TTITLE8=Wear your love like heaven
TTITLE9=I don't know why
EXTD=YEAR: 1990
EXTT0=
EXTT1=
EXTT2=
EXTT3=
EXTT4=
EXTT5=
EXTT6=
EXTT7=
EXTT8=
EXTT9=
PLAYORDER=
